<?xml version="1.0" encoding="utf-8"?>
<!-- Generator: Adobe Illustrator 22.0.0, SVG Export Plug-In . SVG Version: 6.00 Build 0)  -->
<svg version="1.1" id="Layer_1" xmlns="http://www.w3.org/2000/svg" xmlns:xlink="http://www.w3.org/1999/xlink" x="0px" y="0px"
	 viewBox="0 0 300 150" style="enable-background:new 0 0 300 150;" xml:space="preserve">
<style type="text/css">
	.st0{fill:#383838;}
	.st1{fill:#636363;}
	.st2{fill:#BABABA;}
	.st3{fill:#282828;}

.wheel{
    animation: wheel_animation 0.00001s infinite;
	transform-origin: center;
	transform-box:fill-box;
}
.wheel:hover{
	animation: wheel_stop 0.5s;
}


@keyframes wheel_animation {
	from{
		rotate: 0deg;
		transform: translateY(0px);
	}
	to{
		rotate: 360deg;
		transform: translateY(1px);
	}
}
@keyframes wheel_stop {
	from{
		rotate: 0deg;
	}
	to{
		rotate: 360deg;
	}
}
.st30:hover{
	fill:#636363;	
	cursor: pointer;
}
</style>
<g class="wheel">
	<circle class="st0" cx="125.9" cy="75" r="66.2"/>
	<circle class="st1" cx="125.9" cy="75" r="41.5"/>
	<polyline class="st2" points="122.2,63.9 127.8,63.9 139,35.6 130.7,65 135.9,70.2 165.5,66.2 136.8,73.3 136,79.7 160.4,98.1 
		133.9,82.7 126.9,85.7 124.7,115.7 120.1,84 116.1,80.3 88.3,92.8 114.8,76.1 116.2,69.3 97,45.1 117.9,66 	"/>
	<circle class="st2" cx="125.9" cy="74.8" r="12.3"/>
	<circle class="st3" cx="120.2" cy="70.2" r="2.3"/>
	<circle class="st3" cx="132.2" cy="79" r="2.3"/>
	<circle class="st30" cx="131.2" cy="69.3" r="2.3"  style="fill:blue"/>
	<circle class="st3" cx="121.4" cy="80.2" r="2.3" style="fill:green"/>
</g>
</svg>
